# xmcd
#
# Track frame offsets:
#	150
#	33226
#	70225
#	117639
#	141548
#
# Disc length: 2326 seconds
#
# Revision: 0
# Processed by: cddbd v1.5.2PL0 Copyright (c) Steve Scherf et al.
# Submitted via: dBpowerAMP V4.0
#
DISCID=4b091405
DTITLE=luckey - edo sound
DYEAR=2003
DGENRE=Big Band
TTITLE0=good news
TTITLE1=luckey
TTITLE2=luckey
TTITLE3=luckey
TTITLE4=luckey
EXTD=
EXTT0=
EXTT1=
EXTT2=
EXTT3=
EXTT4=
PLAYORDER=
